HIERARCHY
ROOT Hips
{
	OFFSET 0.000000 0.000000 0.000000
	CHANNELS 6 Xposition Yposition Zposition Xrotation Yrotation Zrotation
	JOINT LeftUpLeg_virtual
	{
		OFFSET 0.000000 0.000000 0.000000
		CHANNELS 3 Xrotation Yrotation Zrotation
		JOINT LeftUpLeg
		{
			OFFSET 13.026900 -6.336304 -1.092800
			CHANNELS 3 Xrotation Yrotation Zrotation
			JOINT LeftLeg
			{
				OFFSET 0.524474 -46.096886 9.782700
				CHANNELS 3 Xrotation Yrotation Zrotation
				JOINT LeftFoot
				{
					OFFSET -0.524474 -53.427422 -12.948200
					CHANNELS 3 Xrotation Yrotation Zrotation
					JOINT LeftToeBase
					{
						OFFSET 0.192200 -14.009700 16.364100
						CHANNELS 3 Xrotation Yrotation Zrotation
						JOINT LeftToe_End
						{
							OFFSET -1.784700 -0.561700 9.474800
							CHANNELS 3 Xrotation Yrotation Zrotation
							End Site
							{
								OFFSET 0 0 0
							}
						}
					}
				}
			}
		}
	}
	JOINT RightUpLeg_virtual
	{
		OFFSET 0.000000 0.000000 0.000000
		CHANNELS 3 Xrotation Yrotation Zrotation
		JOINT RightUpLeg
		{
			OFFSET -12.883000 -6.336304 -1.092800
			CHANNELS 3 Xrotation Yrotation Zrotation
			JOINT RightLeg
			{
				OFFSET -0.524587 -46.096825 9.782800
				CHANNELS 3 Xrotation Yrotation Zrotation
				JOINT RightFoot
				{
					OFFSET 0.524587 -53.427383 -12.948300
					CHANNELS 3 Xrotation Yrotation Zrotation
					JOINT RightToeBase
					{
						OFFSET -0.192200 -14.009700 16.364100
						CHANNELS 3 Xrotation Yrotation Zrotation
						JOINT RightToe_End
						{
							OFFSET 1.784700 -0.561700 9.474800
							CHANNELS 3 Xrotation Yrotation Zrotation
							End Site
							{
								OFFSET 0 0 0
							}
						}
					}
				}
			}
		}
	}
	JOINT Spine_virtual
	{
		OFFSET 0.000000 0.000000 0.000000
		CHANNELS 3 Xrotation Yrotation Zrotation
		JOINT Spine
		{
			OFFSET 0.072000 7.257294 -0.789700
			CHANNELS 3 Xrotation Yrotation Zrotation
			JOINT Spine1
			{
				OFFSET 0.000000 12.508769 -0.658067
				CHANNELS 3 Xrotation Yrotation Zrotation
				JOINT Spine1_split
				{
					OFFSET 0.000000 12.508769 -0.658067
					CHANNELS 3 Xrotation Yrotation Zrotation
					JOINT Spine2
					{
						OFFSET 0.000000 12.508769 -0.658067
						CHANNELS 3 Xrotation Yrotation Zrotation
						JOINT Neck_virtual
						{
							OFFSET 0.000000 0.000000 0.000000
							CHANNELS 3 Xrotation Yrotation Zrotation
							JOINT Neck
							{
								OFFSET 0.000000 14.033295 7.520400
								CHANNELS 3 Xrotation Yrotation Zrotation
								JOINT Head
								{
									OFFSET 0.000000 8.198502 5.703100
									CHANNELS 3 Xrotation Yrotation Zrotation
									JOINT HeadTop_End
									{
										OFFSET 0.000000 17.760803 13.332701
										CHANNELS 3 Xrotation Yrotation Zrotation
										End Site
										{
											OFFSET 0 0 0
										}
									}
								}
							}
						}
						JOINT LeftShoulder_virtual
						{
							OFFSET 0.000000 0.000000 0.000000
							CHANNELS 3 Xrotation Yrotation Zrotation
							JOINT LeftShoulder
							{
								OFFSET 6.292450 5.785301 -0.669000
								CHANNELS 3 Xrotation Yrotation Zrotation
								JOINT LeftShoulder_split
								{
									OFFSET 6.292450 5.785301 -0.669000
									CHANNELS 3 Xrotation Yrotation Zrotation
									JOINT LeftArm
									{
										OFFSET 13.907140 -6.093903 1.965100
										CHANNELS 3 Xrotation Yrotation Zrotation
										JOINT LeftForeArm
										{
											OFFSET 34.140198 0.000000 0.000000
											CHANNELS 3 Xrotation Yrotation Zrotation
											JOINT LeftHand
											{
												OFFSET 40.960209 0.000000 0.000000
												CHANNELS 3 Xrotation Yrotation Zrotation
												End Site
												{
													OFFSET 0 0 0
												}
											}
										}
									}
								}
							}
						}
						JOINT RightShoulder_virtual
						{
							OFFSET 0.000000 0.000000 0.000000
							CHANNELS 3 Xrotation Yrotation Zrotation
							JOINT RightShoulder
							{
								OFFSET -6.292450 5.785301 -0.669000
								CHANNELS 3 Xrotation Yrotation Zrotation
								JOINT RightShoulder_split
								{
									OFFSET -6.292450 5.785301 -0.669000
									CHANNELS 3 Xrotation Yrotation Zrotation
									JOINT RightArm
									{
										OFFSET -13.907140 -6.093903 1.965100
										CHANNELS 3 Xrotation Yrotation Zrotation
										JOINT RightForeArm
										{
											OFFSET -34.140198 0.000000 0.000000
											CHANNELS 3 Xrotation Yrotation Zrotation
											JOINT RightHand
											{
												OFFSET -40.960209 0.000000 0.000000
												CHANNELS 3 Xrotation Yrotation Zrotation
												End Site
												{
													OFFSET 0 0 0
												}
											}
										}
									}
								}
							}
						}
					}
				}
			}
		}
	}
}
MOTION
Frames: 4
Frame Time: 0.03333333
1.757169 114.554657 -0.352264 0.000000 0.000000 0.000000 3.052430 -31.793513 1.261257 -15.592888 15.526961 13.089078 15.566768 12.355920 -2.323447 -4.580508 -5.596196 -5.663390 2.329743 -0.215494 -0.653072 0.000000 0.000000 0.000000 4.458773 -31.851016 1.364037 -6.593754 1.980369 -9.160458 7.683641 8.497456 1.391533 -2.276610 -0.980079 4.385794 -4.661562 0.032914 -0.020045 0.000000 0.000000 0.000000 4.104214 -29.625594 0.872634 8.628102 1.747787 -0.196704 0.771266 -0.747373 2.103941 0.048441 -0.649747 1.032572 0.000000 0.000000 0.000000 1.890375 -0.217918 2.233850 -4.670128 21.377818 -6.122279 -5.739852 12.470205 0.177456 0.000000 0.000000 0.000000 1.465012 -0.578209 2.663729 0.801899 -10.689896 -1.339173 2.259466 -0.439126 1.033888 -60.389070 0.426875 -37.041697 6.628092 -59.674789 9.106313 0.000000 0.000000 0.000000 0.397874 -0.588361 2.850870 4.010987 7.408056 7.191752 -2.574192 -3.209989 -1.793634 -1.520816 3.316698 65.146720 13.154844 24.691651 -4.337636 0.000000 0.000000 0.000000 
1.836302 114.406082 -0.496037 0.000000 0.000000 0.000000 2.991280 -32.276377 1.562131 -15.572799 15.909592 12.974622 15.704171 12.186881 -2.244238 -4.634317 -5.825219 -5.567198 2.132828 -0.194070 -0.660261 0.000000 0.000000 0.000000 4.557079 -32.020070 1.617002 -6.849640 1.279222 -9.344318 7.615556 8.291063 1.430559 -2.014331 -0.814024 5.121479 -5.405422 -0.021879 0.003424 0.000000 0.000000 0.000000 3.847913 -29.659308 0.917717 8.672266 1.694036 -0.357449 0.715016 -0.783721 2.145382 0.218128 -0.795132 1.250975 0.000000 0.000000 0.000000 1.904499 -0.268202 2.314578 -4.318982 21.783589 -6.144134 -5.767615 12.947944 -0.033496 0.000000 0.000000 0.000000 1.315231 -0.607956 2.686650 0.754355 -10.089689 -1.593146 2.164072 -0.675002 1.019423 -60.256154 0.699637 -36.698074 6.571601 -59.726630 8.886208 0.000000 0.000000 0.000000 0.344648 -0.642478 2.923529 3.918933 7.429487 7.489644 -2.507999 -3.602065 -1.746862 -0.829563 3.256305 64.740310 13.215461 24.573948 -4.374643 0.000000 0.000000 0.000000 
1.960550 114.201904 -0.718067 0.000000 0.000000 0.000000 3.243419 -32.188072 1.960597 -15.710480 16.036115 12.704155 15.956510 11.938769 -2.096629 -4.554751 -6.342571 -5.402512 1.956808 -0.152699 -0.650042 0.000000 0.000000 0.000000 4.662454 -31.875031 2.000843 -7.097089 0.441851 -9.654852 8.187041 7.914975 1.387314 -2.564287 -0.583775 5.877797 -5.201477 -0.059070 0.038902 0.000000 0.000000 0.000000 3.809505 -29.460484 1.109015 8.517513 1.575459 -0.645191 0.653692 -0.799636 2.217006 0.451647 -0.966909 1.323932 0.000000 0.000000 0.000000 1.827784 -0.293992 2.443257 -4.083080 22.775701 -6.111413 -5.661983 14.523603 -0.395893 0.000000 0.000000 0.000000 1.207307 -0.614132 2.729898 0.717388 -8.959198 -1.712023 2.172430 -0.864048 0.973396 -59.907384 1.447974 -36.025396 6.120794 -60.038176 8.304975 0.000000 0.000000 0.000000 0.331640 -0.657613 3.014899 3.865245 7.546769 7.812772 -2.460450 -3.599032 -1.665497 0.131093 2.930508 64.197761 13.255463 24.595091 -4.379772 0.000000 0.000000 0.000000 
2.103749 114.000496 -0.897385 0.000000 0.000000 0.000000 3.723242 -31.550163 2.310885 -16.043261 15.880390 12.396854 16.205324 11.726652 -1.932711 -4.334946 -7.067490 -5.180119 1.861474 -0.088480 -0.631641 0.000000 0.000000 0.000000 4.836959 -31.318661 2.366732 -7.301441 -0.311296 -9.969854 9.071256 7.395295 1.260287 -3.834327 -0.275365 6.738054 -4.180483 -0.057465 -0.017419 0.000000 0.000000 0.000000 3.982975 -29.062875 1.317278 8.219254 1.447942 -0.949116 0.587443 -0.755601 2.283268 0.409636 -1.095876 1.219442 0.000000 0.000000 0.000000 1.649004 -0.260845 2.566241 -3.987338 24.260357 -6.079669 -5.438267 16.941161 -0.886675 0.000000 0.000000 0.000000 1.173017 -0.562818 2.758133 0.695920 -7.397566 -1.685868 2.290325 -0.881216 1.070457 -59.372922 2.640740 -34.961751 5.310476 -60.461763 7.419097 0.000000 0.000000 0.000000 0.353652 -0.593204 3.077198 3.834983 7.784940 8.101573 -2.302428 -3.165791 -1.587140 1.102387 2.493270 63.662807 13.284846 24.691446 -4.351132 0.000000 0.000000 0.000000 
